# xmcd
#
# Track frame offsets: 
#        150
#        12423
#        20640
#        31117
#        41280
#        51800
#        63677
#        73813
#        84595
#        95668
#        107618
#        119934
#        132099
#        142008
#        153437
#        164313
#        174740
#        185799
#        198680
#        210617
#
# Disc length: 2954 seconds
#
# Revision: 1
# Processed by: cddbd v1.5.2PL0 Copyright (c) Steve Scherf et al.
# Submitted via: ExactAudioCopyFreeDBPlugin 1.0
#
DISCID=2d0b8814
DTITLE=Various Artist - Northern Soul All Nighter [One Day Music]
DYEAR=2016
DGENRE=Soul
TTITLE0=Richard Berry - Have Love Will Travel
TTITLE1=Charles Sheffield - It's Your Voodoo Working
TTITLE2=Wilson Pickett - My Heart Belongs to You
TTITLE3=The Charmaines - All You Gotta Do
TTITLE4=Irma Thomas - Don't Mess With My Man
TTITLE5=The Temptations - Slow Down Heart
TTITLE6=Big Dee Irwin - Everybody's Got a Dance But Me
TTITLE7=Eddie Holland - Jamie
TTITLE8=The Tams - Untie Me
TTITLE9=The "5" Royales - It Hurts Inside
TTITLE10=Rufus and Carla Thomas - Cause I Love You
TTITLE11=Smokey Robinson and The Miracles - If Your Mother Only Knew
TTITLE12=Jerry Butler - I'm the One
TTITLE13=The Tonettes - No Tears
TTITLE14=Patti LaBelle and The Blue-Belles - I Sold My Heart to the Junk
TTITLE14=man
TTITLE15=Chuck Jackson - I Don't Want to Cry
TTITLE16=Betty O'Brian - Why Me
TTITLE17=LaBrenda Ben and The Beljeans - Camel Walk
TTITLE18=Dee Dee Sharp - Dee Dee Sharp
TTITLE19=The Pentagons - I Wonder (If Your Love Will Ever Belong To Me
TTITLE19=)
EXTD=
EXTT0=
EXTT1=
EXTT2=
EXTT3=
EXTT4=
EXTT5=
EXTT6=
EXTT7=
EXTT8=
EXTT9=
EXTT10=
EXTT11=
EXTT12=
EXTT13=
EXTT14=
EXTT15=
EXTT16=
EXTT17=
EXTT18=
EXTT19=
PLAYORDER=
